HIERARCHY
ROOT Hips
{
  OFFSET -6.31025 38.3438 31.8191
  CHANNELS 6 Xposition Yposition Zposition Zrotation Xrotation Yrotation
  JOINT LeftHip
  {
    OFFSET 3.43 0 0
    CHANNELS 3 Zrotation Xrotation Yrotation
    JOINT LeftKnee
    {
      OFFSET 0 -18.47 0
      CHANNELS 3 Zrotation Xrotation Yrotation
      JOINT LeftAnkle
      {
        OFFSET 0 -17.95 0
        CHANNELS 3 Zrotation Xrotation Yrotation
        End Site
        {
          OFFSET 0 -3.12 0
        }
      }
    }
  }
  JOINT RightHip
  {
    OFFSET -3.43 0 0
    CHANNELS 3 Zrotation Xrotation Yrotation
    JOINT RightKnee
    {
      OFFSET 0 -18.47 0
      CHANNELS 3 Zrotation Xrotation Yrotation
      JOINT RightAnkle
      {
        OFFSET 0 -17.95 0
        CHANNELS 3 Zrotation Xrotation Yrotation
        End Site
        {
          OFFSET 0 -3.12 0
        }
      }
    }
  }
  JOINT Chest
  {
    OFFSET 0 4.57 0
    CHANNELS 3 Zrotation Xrotation Yrotation
    JOINT CS_BVH
    {
      OFFSET 0 6.57 0
      CHANNELS 3 Zrotation Xrotation Yrotation
      JOINT LeftCollar
      {
        OFFSET 1.06 4.19 1.76
        CHANNELS 3 Zrotation Xrotation Yrotation
        JOINT LeftShoulder
        {
          OFFSET 5.81 0 0
          CHANNELS 3 Zrotation Xrotation Yrotation
          JOINT LeftElbow
          {
            OFFSET 0 -12.08 0
            CHANNELS 3 Zrotation Xrotation Yrotation
            JOINT LeftWrist
            {
              OFFSET 0 -9.82 0
              CHANNELS 3 Zrotation Xrotation Yrotation
              End Site
              {
                OFFSET 0 -7.37 0
              }
            }
          }
        }
      }
      JOINT RightCollar
      {
        OFFSET -1.06 4.19 1.76
        CHANNELS 3 Zrotation Xrotation Yrotation
        JOINT RightShoulder
        {
          OFFSET -6.06 0 0
          CHANNELS 3 Zrotation Xrotation Yrotation
          JOINT RightElbow
          {
            OFFSET 0 -11.08 0
            CHANNELS 3 Zrotation Xrotation Yrotation
            JOINT RightWrist
            {
              OFFSET 0 -9.82 0
              CHANNELS 3 Zrotation Xrotation Yrotation
              End Site
              {
                OFFSET 0 -7.14001 0
              }
            }
          }
        }
      }
      JOINT Neck
      {
        OFFSET 0 4.05 0
        CHANNELS 3 Zrotation Xrotation Yrotation
        JOINT Head
        {
          OFFSET 0 5.19 0
          CHANNELS 3 Zrotation Xrotation Yrotation
          End Site
          {
            OFFSET 0 4.14001 0
          }
        }
      }
    }
  }
}
MOTION
Frames:	14
Frame Time:	0.0333333
23.3596 39.7716 -32.1029 0.461792 -0.022692 0.0127653 2.58702 -5.48799 -0.0448878 -0.00816172 11.1779 -0.129635 -3.0473 -5.66846 -0.138241 -3.5431 -8.97288 -0.00221792 -0.0171812 18.258 0.220803 3.10285 -9.26044 0.275086 -0.628439 -0.0207901 0.0146829 -0.152225 -0.0398449 0.0248474 10 -5.93124e-014 1.09207e-014 80 -1.49461e-014 4.59159e-012 5.63451e-011 -6.43311e-013 1.98292e-010 1.78479e-010 -8.07067e-012 1.08206e-009 -10 -5.80203e-014 -8.97637e-015 -80 -8.81796e-014 -4.46565e-012 7.28626e-011 -1.65527e-012 -1.93846e-010 2.31298e-010 -2.29701e-011 -1.05813e-009 -4.04998e-014 -4.06266e-014 7.14382e-016 -1.27278e-013 -2.23496e-013 3.05631e-015 
21.7558 38.5048 -32.6199 -2.4157 1.89342 -37.5259 1.20985 -10.868 -0.0811525 0.0382602 47.0084 -0.186504 3.62892 -33.0894 14.6057 -2.37629 -19.9044 8.26709 0.0294365 50.3813 0.134707 1.17268 -26.334 -5.69987 0.552747 0.436284 -1.97868 4.80385 -2.11406 -0.444195 10 -5.93124e-014 1.09207e-014 -2.8244 -0.551662 -25.9293 14.237 -22.3726 4.59235 -0.102279 -1.0481 -14.1032 -10 -5.80203e-014 -8.97637e-015 -2.01885 4.55182 3.49741 -15.0144 -23.1269 -5.47567 0.0616625 0.995118 -9.99438 -19.7958 -8.72702 -8.60054 27.2376 31.9792 -22.5499 
21.7799 38.5074 -32.5713 -2.35846 1.78481 -37.5598 0.921421 -10.7637 -0.268557 0.0386309 46.9674 -0.186361 3.71454 -33.1717 14.7166 -2.64937 -19.8276 8.13433 0.0311765 50.3632 0.136563 1.18227 -26.3998 -5.65044 0.55861 0.305242 -1.83283 4.76262 -2.08146 -0.404398 10 -5.93124e-014 1.09207e-014 -3.11227 -0.365743 -25.8297 14.1744 -22.2885 4.5619 -0.102684 -1.0499 -14.1279 -10 -5.80203e-014 -8.97637e-015 -2.14766 4.44203 2.19036 -14.9327 -23.0214 -5.43261 0.05817 0.950382 -9.51527 -20.0706 -8.74608 -8.66254 27.5206 32.1269 -22.7601 
21.8099 38.5042 -32.5544 -2.23584 1.70372 -37.3239 0.847102 -10.8505 -0.151888 0.0242725 47.0116 -0.186515 3.5326 -33.0666 14.3869 -2.82179 -19.849 8.11863 0.0318484 50.4564 0.138604 1.18869 -26.5087 -5.59323 0.211137 0.358609 -1.96914 4.90187 -2.08218 -0.440877 10 -5.93124e-014 1.09207e-014 -3.18756 -0.57702 -25.5575 13.9481 -21.9833 4.45221 -0.0928569 -1.005 -13.5137 -10 -5.80203e-014 -8.97637e-015 -2.20618 4.11894 1.81965 -14.8389 -22.9003 -5.38324 0.0580512 0.949564 -9.50701 -19.9897 -9.63034 -8.86078 28.0476 32.928 -23.2377 
21.836 38.5017 -32.5502 -2.13334 1.62671 -37.278 0.591498 -10.829 -0.222923 0.0170548 47.0382 -0.186608 3.67647 -32.8897 14.8058 -3.04374 -19.8815 8.03306 0.0300525 50.5196 0.140409 1.15213 -26.4178 -5.73676 0.145767 0.24139 -1.68446 4.96455 -2.16858 -0.355611 10 -5.93124e-014 1.09207e-014 -3.43727 -0.504301 -25.7567 13.7937 -21.774 4.37798 -0.0820888 -0.947813 -12.7336 -10 -5.80203e-014 -8.97637e-015 -2.41874 4.38943 2.23205 -15.0986 -23.2352 -5.52019 0.074487 1.05585 -10.5808 -20.6424 -9.29734 -8.95515 28.9585 32.6714 -23.6787 
21.867 38.4989 -32.5459 -2.03154 1.57558 -36.9521 0.490996 -10.8857 -0.345137 0.0121989 46.985 -0.186686 3.50536 -33.0663 14.3317 -3.18666 -19.8369 8.01905 0.0238146 50.5669 0.141998 1.12645 -26.5667 -5.78115 -0.0766666 0.263731 -1.78722 5.05206 -2.16294 -0.383734 10 -5.93124e-014 1.09207e-014 -3.58227 -0.487641 -25.5614 13.6099 -21.5238 4.29029 -0.0933745 -1.00742 -13.5469 -10 -5.80203e-014 -8.97637e-015 -2.46301 4.39147 3.60483 -15.3764 -23.5907 -5.66804 0.083832 1.11107 -11.1399 -20.6764 -9.55654 -9.16879 28.8931 32.6387 -23.9638 
21.8859 38.4953 -32.546 -2.09818 1.66324 -36.4736 0.721256 -11.0968 -0.298319 0.0109736 47.1177 -0.188143 3.25906 -33.0237 13.8086 -3.06133 -19.7642 7.95612 0.00784714 50.5021 0.143062 0.945103 -26.5596 -6.32777 0.013508 0.208795 -2.0118 5.01948 -2.17597 -0.448648 10 -5.93124e-014 1.09207e-014 -3.75161 -0.482857 -24.9588 13.4692 -21.3312 4.22353 -0.0993167 -1.03477 -13.9208 -10 -5.80203e-014 -8.97637e-015 -2.29846 4.3632 4.51128 -15.5796 -23.849 -5.77709 0.100266 1.2011 -12.0538 -20.7843 -9.25394 -9.17477 29.2012 32.2842 -24.0779 
21.9128 38.4958 -32.5199 -1.95174 1.4624 -36.1619 0.407932 -11.0296 -0.514252 0.0106732 47.0666 -0.188878 3.13337 -33.0568 13.5048 -3.35981 -19.6191 7.90334 0.0184957 50.5379 0.144225 0.850481 -26.689 -6.55299 -0.363844 0.29832 -1.29553 4.6473 -1.61982 -0.266094 10 -5.93124e-014 1.09207e-014 -3.26357 -1.57707 -25.9464 13.1246 -20.8566 4.06184 -0.0968714 -1.00346 -13.4927 -10 -5.80203e-014 -8.97637e-015 -1.58224 3.8924 4.30302 -15.6521 -23.9408 -5.81608 0.106423 1.23289 -12.3771 -20.6554 -9.60854 -9.75117 29.6614 31.9563 -25.1754 
21.9049 38.5015 -32.4932 -2.28441 1.48061 -35.755 0.758916 -10.9621 -0.515858 0.0125592 47.1585 -0.190083 3.00202 -32.8977 13.3038 -3.15894 -19.2811 7.64179 0.0264241 50.4161 0.144684 0.805262 -26.7017 -6.69127 0.0429422 0.431113 -1.14637 4.18098 -1.51875 -0.231986 10 -5.93124e-014 1.09207e-014 -3.24235 -1.4268 -25.0836 13.1291 -20.8629 4.06389 -0.113634 -1.09742 -14.7794 -10 -5.80203e-014 -8.97637e-015 -0.791198 3.55388 3.27884 -15.4371 -23.6681 -5.70059 0.0859893 1.13489 -11.3815 -20.7915 -9.56279 -9.91485 30.3257 31.6844 -25.6382 
21.9038 38.5031 -32.4729 -2.38798 1.47449 -35.6219 0.759487 -10.8625 -0.77456 0.0151035 47.1438 -0.190906 3.0804 -33.0226 13.3907 -3.10143 -19.1333 7.53362 0.0301084 50.3343 0.145028 0.728808 -26.7914 -6.88881 0.115664 0.398445 -0.941532 4.31086 -1.47611 -0.173683 10 -5.93124e-014 1.09207e-014 -3.44974 -1.24373 -25.5313 13.0723 -20.7842 4.03745 -0.110003 -1.08193 -14.5669 -10 -5.80203e-014 -8.97637e-015 -0.676833 3.58718 4.47432 -15.6101 -23.8877 -5.79347 0.10002 1.19551 -11.9969 -21.1504 -9.40893 -9.9538 30.6937 31.5078 -25.7758 
21.8886 38.5085 -32.465 -2.64726 1.46073 -35.4898 0.931504 -10.6867 -0.875245 0.0187993 47.1887 -0.191976 3.11728 -32.9877 13.4897 -3.01808 -18.8294 7.29682 0.0308842 50.2247 0.145033 0.815271 -26.7865 -6.63125 0.407883 0.462053 -0.723484 4.1871 -1.33542 -0.116708 10 -5.93124e-014 1.09207e-014 -3.69976 -0.984956 -25.2511 13.1631 -20.9099 4.07977 -0.120987 -1.12801 -15.1999 -10 -5.80203e-014 -8.97637e-015 -0.249382 3.24321 4.28142 -15.4317 -23.6612 -5.69766 0.0934861 1.16494 -11.6864 -21.3508 -9.5353 -10.0955 30.6524 31.4239 -25.9213 
21.8744 38.5058 -32.4857 -2.84205 1.63041 -35.4254 1.33032 -10.789 -0.624397 0.0235252 47.331 -0.193473 2.96898 -33.0762 13.125 -2.7371 -18.8074 7.23979 0.0296951 50.1185 0.144781 0.820805 -26.6283 -6.68469 0.620823 0.439179 -0.643089 4.31001 -1.52977 -0.087701 10 -5.93124e-014 1.09207e-014 -3.91192 -0.467375 -25.5156 12.6047 -20.1324 3.82237 -0.161988 -1.28322 -17.3451 -10 -5.80203e-014 -8.97637e-015 -0.0473643 3.41249 5.00486 -15.611 -23.8888 -5.79401 0.0986356 1.19252 -11.9666 -21.3129 -9.65096 -10.174 30.3341 31.5993 -25.991 
21.8632 38.5044 -32.4958 -2.96064 1.70016 -35.197 1.44619 -10.8354 -0.825492 0.0280111 47.3781 -0.194734 2.96673 -33.0352 13.1187 -2.5974 -18.731 7.14981 0.0273735 50.0753 0.144436 0.786497 -26.6581 -6.78559 0.827284 0.262678 -0.228383 4.39486 -1.96703 0.0428269 10 -5.93124e-014 1.09207e-014 -4.04607 -0.199899 -25.8035 12.7732 -20.3682 3.8993 -0.138215 -1.19613 -16.1387 -10 -5.80203e-014 -8.97637e-015 0.07238 4.08181 4.12857 -15.4404 -23.6723 -5.70228 0.0536837 0.918869 -9.19748 -21.8302 -8.04338 -10.0173 30.4196 30.2754 -25.8823 
21.8545 38.5043 -32.4918 -2.95045 1.58738 -35.01 1.45917 -10.7932 -0.783611 0.0321121 47.3661 -0.19592 2.83723 -33.0071 12.8696 -2.65754 -18.6469 7.08661 0.0248092 50.1411 0.144118 0.701878 -26.645 -7.03289 0.510452 0.578793 -0.531641 4.36627 -1.64327 -0.0521621 10 -5.93124e-014 1.09207e-014 -4.36671 0.285686 -24.0252 13.2716 -21.0595 4.1305 -0.154117 -1.21815 -16.4431 -10 -5.80203e-014 -8.97637e-015 0.676399 3.10138 4.32909 -15.3258 -23.5263 -5.64105 0.0462931 0.863967 -8.64444 -21.4445 -8.82469 -10.1658 30.3126 30.2638 -25.8585 
